<svg width="23" height="23" viewBox="0 0 23 23" fill="none" xmlns="http://www.w3.org/2000/svg">
<path d="M11.4908 0.0418701C5.16582 0.0418701 0.0439453 5.1752 0.0439453 11.5002C0.0439453 17.8252 5.16582 22.9585 11.4908 22.9585C17.8272 22.9585 22.9606 17.8252 22.9606 11.5002C22.9606 5.1752 17.8272 0.0418701 11.4908 0.0418701ZM11.5022 20.6669C6.4377 20.6669 2.33561 16.5647 2.33561 11.5002C2.33561 6.43562 6.4377 2.33354 11.5022 2.33354C16.5669 2.33354 20.669 6.43562 20.669 11.5002C20.669 16.5647 16.5669 20.6669 11.5022 20.6669ZM11.2502 5.77104H11.1814C10.7231 5.77104 10.3564 6.1377 10.3564 6.59604V12.0044C10.3564 12.4054 10.5627 12.7835 10.9179 12.9897L15.6731 15.8429C16.0627 16.0721 16.5669 15.9575 16.796 15.5679C17.0366 15.1784 16.9106 14.6628 16.5096 14.4335L12.0752 11.7981V6.59604C12.0752 6.1377 11.7085 5.77104 11.2502 5.77104Z" fill="white"/>
</svg>
